<svg xmlns="http://www.w3.org/2000/svg" width="110" height="105" viewBox="0 0 110 105">
    <defs>
        <style>
            .cls-1 {
            fill: #ea5f60;
            fill-rule: evenodd;
            }
        </style>
    </defs>
    <path class="cls-1" d="M780.312,67.166h-0.036a0.407,0.407,0,0,0-.313.178,1.544,1.544,0,0,0-.165,1.167l0,0.008v0.008a2.359,2.359,0,0,0,.816,1.335c0.112-.885.212-2.22-0.129-2.614A0.213,0.213,0,0,0,780.312,67.166Zm-2.11,2.4a7.834,7.834,0,0,0-1.125,2.395,2.6,2.6,0,0,0,.152,1.93,0.783,0.783,0,0,0,.6.275h0.006l0.059,0c0.757,0,1.642-1.093,2.15-2.191A4.847,4.847,0,0,1,778.2,69.565Zm56.079-33.472a38.222,38.222,0,0,0-11.561-1.841,53.155,53.155,0,0,0-12.356,1.663,6.642,6.642,0,0,1,.96,2.962,4.412,4.412,0,0,1-4.472,5.043,5.2,5.2,0,0,1-2.493-.639,4.246,4.246,0,0,1-2.3-3.764,3.268,3.268,0,0,1,1.1-2.367,11.51,11.51,0,0,1,4.039-2.271c-2.314-2.46-6.093-4.671-9.569-4.881a10.693,10.693,0,0,0-4.738,1.78,24.779,24.779,0,0,1,2.207,1.958c1.473,1.481,3.926,4.368,3.789,7.06-0.222,4.343-3.606,6.277-6.884,6.277h-0.067c-3.723-.03-7.657-2.455-7.8-6.462-0.071-2.062,1.3-4.7,3.766-7.238a21.463,21.463,0,0,1,1.7-1.565,10.107,10.107,0,0,0-5.029-1.825c-3.528.137-7.4,2.389-9.762,4.9a11.519,11.519,0,0,1,4.039,2.271,3.268,3.268,0,0,1,1.1,2.367,4.248,4.248,0,0,1-2.3,3.764,4.983,4.983,0,0,1-4.931-.027,4.616,4.616,0,0,1-2.034-4.378,6.626,6.626,0,0,1,.959-2.962,41.017,41.017,0,0,0-11.419-1.487,36.287,36.287,0,0,0-16.039,3.865,54.171,54.171,0,0,0-8.318,20.6c0.462-.758.8-1.307,0.829-1.346a25.552,25.552,0,0,1,3.239-4.175,16.986,16.986,0,0,1,3.538-2.886,8.671,8.671,0,0,1,4.406-1.33c0.074,0,.15,0,0.224,0a4.77,4.77,0,0,1,3.633,1.725c1.216,1.443,1.892,3.735,2.007,6.812,0.032,0.833.017,1.606-.016,2.254a45.418,45.418,0,0,1,2.114-4.335c2.317-4.126,4.559-6.219,6.664-6.219l0.129,0a2.753,2.753,0,0,1,2.186,1.1c1.353,1.755,1.173,5.249.849,7.615a33.342,33.342,0,0,1,1.614-3.011,17.15,17.15,0,0,1,2.845-3.643,5.45,5.45,0,0,1,3.63-1.7l0.121,0a3.138,3.138,0,0,1,2.452,1.194,6.688,6.688,0,0,1,.914,4.951c-0.144.785-1,4.085-1.82,7.276-0.675,2.615-1.313,5.086-1.586,6.261-0.826,3.638.037,4.833,0.125,4.942a0.721,0.721,0,0,1,.288.5,0.75,0.75,0,0,1-.266.61,0.617,0.617,0,0,1-.447.176,1.53,1.53,0,0,1-.666-0.209l-0.064-.025a1.744,1.744,0,0,1-.795-0.826,6.578,6.578,0,0,1-.534-3.474,37.392,37.392,0,0,1,1.507-8.057,50.6,50.6,0,0,0,1.661-7.162c0.194-1.431.3-3.305-.287-4.111a0.924,0.924,0,0,0-.759-0.4H773.55a4.059,4.059,0,0,0-2.725,1.672,21.135,21.135,0,0,0-2.689,4.025,44.028,44.028,0,0,0-3.247,7.731c-0.513,1.924-1.085,5.148-1.359,6.7-0.125.7-.17,0.952-0.191,1.026l-0.006.02-0.009.019c-0.009.02-.021,0.048-0.034,0.08a1.64,1.64,0,0,1-1.253,1.215,0.988,0.988,0,0,1-.338-0.062l-0.009,0a1.2,1.2,0,0,1-.832-1.267h-0.017l0.075-.341c0.011-.048,1.059-4.818,1.614-8.54,0.062-.419.141-0.908,0.224-1.425,0.551-3.435,1.474-9.185.226-10.681a0.839,0.839,0,0,0-.649-0.324h-0.049c-1.215,0-3.127,2.038-4.99,5.318a43.608,43.608,0,0,0-4.482,11.753c-0.567,2.594-1.029,5.083-1.065,5.419V73.76a2.174,2.174,0,0,1-.471,1.4,1,1,0,0,1-.725.3c-0.032,0-.066,0-0.1,0A1.673,1.673,0,0,1,749.143,75a1.128,1.128,0,0,1,.067-1,86.623,86.623,0,0,0,1.814-8.789c0.022-.193.051-0.43,0.086-0.7,0.343-2.738,1.253-10.011-.971-12.608a2.55,2.55,0,0,0-1.933-.933c-0.061,0-.121,0-0.182,0-1.416,0-3.773.663-6.96,3.821a29.8,29.8,0,0,0-3.248,3.844c-0.038.1-1.166,1.985-2.5,4.14a54.832,54.832,0,0,0-.308,5.747,54.11,54.11,0,0,0,8.4,29.02,37.475,37.475,0,0,0,17.994,4.562s7.027-.4,10.236-1.563a6.628,6.628,0,0,1-.959-2.962,4.616,4.616,0,0,1,2.034-4.377,4.977,4.977,0,0,1,4.931-.026,4.247,4.247,0,0,1,2.3,3.763,3.268,3.268,0,0,1-1.1,2.367,11.513,11.513,0,0,1-4.039,2.27c2.314,2.461,6.093,4.672,9.569,4.882a10.706,10.706,0,0,0,4.738-1.78,24.69,24.69,0,0,1-2.207-1.959c-1.474-1.481-3.926-4.368-3.789-7.059,0.221-4.343,3.6-6.278,6.884-6.278h0.067c3.722,0.03,7.657,2.455,7.8,6.462,0.071,2.062-1.3,4.7-3.766,7.238a21.761,21.761,0,0,1-1.7,1.565,10.191,10.191,0,0,0,5.029,1.825c3.527-.137,7.405-2.39,9.762-4.9a11.5,11.5,0,0,1-4.039-2.27,3.268,3.268,0,0,1-1.1-2.367,4.245,4.245,0,0,1,2.3-3.763,4.978,4.978,0,0,1,4.931.026,4.618,4.618,0,0,1,2.034,4.377,6.642,6.642,0,0,1-.96,2.962,53.116,53.116,0,0,0,12.347,1.679v0.008a37.854,37.854,0,0,0,12.1-2.022A54.321,54.321,0,0,0,834.281,36.093ZM764.867,84.239a1.387,1.387,0,1,1,1.4-1.387A1.391,1.391,0,0,1,764.867,84.239Zm6.342,0.942-1.448-1.593-0.528.557v1.036h-0.906V80.616h0.906v2.2l2.015-2.2h1.127l-2.007,2.254,2.066,2.312h-1.225ZM823.963,62.4a1.842,1.842,0,0,1,1.549-1.487,1.239,1.239,0,0,1,.178.013,1.084,1.084,0,0,1,.795.459,1.8,1.8,0,0,1,.1,1.418,1.513,1.513,0,0,1-1.443,1.1h0a1.459,1.459,0,0,1-.191-0.013h-0.007a1.169,1.169,0,0,1-.81-0.478A1.328,1.328,0,0,1,823.963,62.4Zm-26.375,1.142a1.268,1.268,0,0,1,.178.013,1.086,1.086,0,0,1,.8.459,1.8,1.8,0,0,1,.1,1.418,1.512,1.512,0,0,1-1.442,1.1h0a1.411,1.411,0,0,1-.19-0.013h-0.007a1.17,1.17,0,0,1-.811-0.478,1.328,1.328,0,0,1-.167-1.013A1.841,1.841,0,0,1,797.588,63.544Zm-8.388-2.3a3.658,3.658,0,0,1,1.348-2.468l0.044-.041a1.559,1.559,0,0,1,.946-0.459,0.845,0.845,0,0,1,.528.16l0.008,0.006,0.008,0.006c0.39,0.324.06,1.141-.226,1.488l0,0a2.027,2.027,0,0,0-.593,1.615,0.318,0.318,0,0,0,.338.174h0.067a2.917,2.917,0,0,0,2-1.289,6.233,6.233,0,0,0,.984-1.863h0c1.041-.823,2.022.421,1.36,1.706a8.827,8.827,0,0,1-.6.941,4.953,4.953,0,0,1-3.824,2.317c-0.052,0-.1,0-0.157,0a2.288,2.288,0,0,1-1.744-.658A2.062,2.062,0,0,1,789.2,61.246ZM777.818,85.182h-3.527V80.616h3.39v0.8H775.2v1.159h2.079v0.777H775.2v1.023h2.62v0.8Zm3.761-1.172H780.8v1.172h-0.932V80.616h1.89a1.564,1.564,0,0,1,1.8,1.645C783.561,83.511,782.746,84.009,781.579,84.009Zm6.094-.376v1.548h-0.938V83.634l-1.76-3.018h1.062l1.174,2.014,1.16-2.014h1.069Zm6.473,1.548L792.7,83.588l-0.528.557v1.036h-0.906V80.616h0.906v2.2l2.014-2.2h1.128l-2.008,2.254,2.067,2.312h-1.226Zm6.382,0h-3.3V80.616h0.932V84.4h2.367v0.777Zm5.494,0H802.5V80.616h3.389v0.8H803.4v1.159h2.079v0.777H803.4v1.023h2.62v0.8Zm-2.462-6.069a0.576,0.576,0,1,1,.576.572A0.574,0.574,0,0,1,803.56,79.112Zm7.814,6.069h-3.3V80.616h0.932V84.4h2.367v0.777Zm5.5,0h-3.527V80.616h3.39v0.8h-2.484v1.159h2.079v0.777h-2.079v1.023h2.621v0.8Zm-2.455-6.069a0.576,0.576,0,1,1,.576.572A0.574,0.574,0,0,1,814.414,79.112Zm5.548,5.127a1.387,1.387,0,1,1,1.4-1.387A1.391,1.391,0,0,1,819.962,84.239ZM839.74,70.9l0,0.006c-0.022.031-.05,0.073-0.085,0.126-2.626,3.927-5.189,4.752-6.877,4.752-0.109,0-.219,0-0.328-0.01a4.024,4.024,0,0,1-3.92-2.894c-1.2,1.4-2.863,2.814-4.7,2.814h-0.047a3.863,3.863,0,0,1-2.969-1.159,4.7,4.7,0,0,1-2.119.52h0c-0.073,0-.147,0-0.219-0.005a2.634,2.634,0,0,1-2.019-.942,3.994,3.994,0,0,1-.786-2c-1.085,1.28-2.8,2.9-4.533,2.937h-0.058a2.687,2.687,0,0,1-2.586-1.674,4.237,4.237,0,0,1-.257-0.745c-0.559.922-1.653,2.343-3.089,2.343-0.058,0-.117,0-0.174-0.007h0a1.937,1.937,0,0,1-1.427-.86,3.466,3.466,0,0,1-.508-1.289c-1.19,1.39-2.9,2.915-4.681,2.915H798.3a2.81,2.81,0,0,1-2.318-1.034,3.97,3.97,0,0,1-.76-1.857c-0.155.166-.32,0.335-0.5,0.5a8.469,8.469,0,0,1-5.522,2.547c-0.06,0-.118,0-0.177,0h0a4.038,4.038,0,0,1-3.155-1.323,3.757,3.757,0,0,1-.855-2.4,4.915,4.915,0,0,1-2.232.529,5.758,5.758,0,0,1-1.093-.108c-0.983,2.1-2.5,3.3-4.179,3.3-0.074,0-.149,0-0.223-0.007a2.107,2.107,0,0,1-1.612-.83,4.365,4.365,0,0,1-.511-3.33,12.466,12.466,0,0,1,1.06-2.91,3.656,3.656,0,0,1,1.864-2.016,2.445,2.445,0,0,1,2.2-1.566c0.037,0,.076,0,0.115,0a1.972,1.972,0,0,1,1.5.772c0.743,0.9.943,2.416,0.564,4.26a3.732,3.732,0,0,1-.107.505,3.021,3.021,0,0,0,.939.152,2.814,2.814,0,0,0,2.1-.952,9.606,9.606,0,0,1,1.546-2.9,4.954,4.954,0,0,1,3.894-2.2c0.052,0,.1,0,0.156,0a2.287,2.287,0,0,1,1.723.711,2.064,2.064,0,0,1,.433,1.653,3.661,3.661,0,0,1-1.424,2.426l-0.045.04a1.563,1.563,0,0,1-.96.43,0.842,0.842,0,0,1-.522-0.175l-0.009-.006-0.007-.007c-0.38-.336-0.025-1.142.272-1.48l0,0a2.031,2.031,0,0,0,.642-1.6,0.319,0.319,0,0,0-.332-0.184l-0.068,0a2.919,2.919,0,0,0-2.036,1.227,6.364,6.364,0,0,0-1.348,3,3.26,3.26,0,0,0,.282,2.584,2.493,2.493,0,0,0,1.952.631H789.6c2.684,0,4.573-2.215,5.834-4,0.228-.856.518-1.814,0.535-1.869l0.007-.024,0.012-.023a1.268,1.268,0,0,1,1.13-.657,0.994,0.994,0,0,1,.75.3,0.738,0.738,0,0,1,.178.6,1.71,1.71,0,0,1-.082.28c-0.545,1.642-1.054,3.788-.394,4.695a1.115,1.115,0,0,0,.974.424l0.116,0c1.574-.059,3.444-2.312,4.656-3.991a27.147,27.147,0,0,1,1.059-2.747c0.035-.078.063-0.142,0.084-0.192a1.076,1.076,0,0,1,1.04-.859,1.544,1.544,0,0,1,.476.082,0.738,0.738,0,0,1,.5.387,1.55,1.55,0,0,1-.259,1.226c-0.063.133-.128,0.27-0.188,0.412-0.6,1.439-1.335,3.87-.877,4.66a0.411,0.411,0,0,0,.328.219h0.029c0.746,0,2.138-2.262,2.579-3.44,0.119-.319.229-0.633,0.336-0.938s0.219-.626.341-0.951a1.243,1.243,0,0,1,1.149-1.016,1.2,1.2,0,0,1,.3.038l0.006,0a0.966,0.966,0,0,1,.657.447,1,1,0,0,1-.148.856c-0.052.109-.107,0.223-0.153,0.343a13.756,13.756,0,0,0-.258,1.366c-0.066.4-.141,0.861-0.237,1.4a2.67,2.67,0,0,0,.263,1.876,0.79,0.79,0,0,0,.558.3,2.637,2.637,0,0,0,.28.015h0c1.911,0,3.429-2.119,4.485-3.724,0.029-.255.065-0.521,0.11-0.8,0.179-1.154,1.057-4.274,1.922-7.265H811.8a1.906,1.906,0,0,1-1.218-.426,0.621,0.621,0,0,1-.15-0.491l0-.013a0.993,0.993,0,0,1,1.135-.816,3.853,3.853,0,0,1,.519.043c0.054,0.007.122,0.017,0.143,0.017l5.969-.039c0.174-.585.329-1.038,0.407-1.268,0.022-.063.042-0.124,0.051-0.151V58.392l0.016-.043a1.163,1.163,0,0,1,.953-1.07,1.26,1.26,0,0,1,.387.069l0,0A1.614,1.614,0,0,1,820.608,59l-0.191.857,1.522-.038a2.107,2.107,0,0,1,.274-0.018,1.009,1.009,0,0,1,.785.273,0.664,0.664,0,0,1,.154.541v0.008l0,0.008c-0.16.888-1.537,0.914-1.693,0.914h-1.508c-0.086.345-.183,0.721-0.286,1.114-0.09.345-.183,0.7-0.279,1.082l0,0.007c-0.068.243-.229,0.748-0.433,1.387-0.443,1.391-1.051,3.3-1.2,4.054-0.2,1.029-.216,2.912.382,3.687a0.863,0.863,0,0,0,.645.362q0.1,0.008.2,0.008a2.781,2.781,0,0,0,1.09-.233,7.454,7.454,0,0,1,.009-2.756,9.628,9.628,0,0,1,1.478-3.468c0.908-1.351,1.911-2.1,2.826-2.1a1.767,1.767,0,0,1,.991.31l0.008,0.005c1.616,1.15.606,3.088-.131,4.5-0.055.106-.109,0.21-0.161,0.312a13.167,13.167,0,0,1-1.371,2.093,10.878,10.878,0,0,1-1.082,1.259l-0.176.189a2.372,2.372,0,0,0,1.212.312c2.379,0,4.332-2.606,5.564-4.348,0.042-.068.091-0.142,0.145-0.224a12.682,12.682,0,0,0,1.721-3.781c0.164-.636.47-1.814,1.558-1.814h0.009a1.261,1.261,0,0,1,.957.4,2.45,2.45,0,0,1,.286,1.852c-0.013.114-.024,0.213-0.029,0.294a10.518,10.518,0,0,0,.285,1.966,9.336,9.336,0,0,1,.306,2.524v0.007l0,0.007a4.572,4.572,0,0,1-1.312,2.342,3.315,3.315,0,0,1-1.426.813,2.782,2.782,0,0,0,1.355.325c2.627,0,4.829-3.221,6.013-4.952,0.1-.141.187-0.274,0.272-0.4a0.624,0.624,0,0,1,.508-0.328,0.457,0.457,0,0,1,.4.249c0.191,0.341.165,1.141-.541,2.275Zm-7.331-.67a4.243,4.243,0,0,0-.437-2.888,12.264,12.264,0,0,1-1.678,3.084,0.468,0.468,0,0,1-.073.08c-0.051.089-.105,0.178-0.163,0.268l-0.012.019-0.039.061c0.011,0.043.019,0.08,0.025,0.111l0.011,0.051v0.009a4.416,4.416,0,0,0,.414,1.289l0.079,0C831.67,72.217,832.247,71.574,832.409,70.229Zm-9.054-.73c0.063-.131.127-0.267,0.2-0.407,0.716-1.4.852-2.155,0.74-2.392a0.1,0.1,0,0,0-.062-0.057,1.077,1.077,0,0,0-.449.377,9.8,9.8,0,0,0-1.9,4.627,13.39,13.39,0,0,0,.955-1.163A9.313,9.313,0,0,0,823.355,69.5ZM781.612,81.419H780.8v1.82h0.685a0.918,0.918,0,0,0,1.095-.907A0.857,0.857,0,0,0,781.612,81.419Zm26.661,13.4a2.709,2.709,0,0,0-1.419-.377,3.274,3.274,0,0,0-1.563.4,2.371,2.371,0,0,0-1.3,2.1,1.465,1.465,0,0,0,.53.994,10.707,10.707,0,0,0,3.947,2.034,5.2,5.2,0,0,0,.932-2.485A2.766,2.766,0,0,0,808.273,94.818Zm-3.755-56.307a1.464,1.464,0,0,0-.53.994,2.371,2.371,0,0,0,1.3,2.1,3.06,3.06,0,0,0,2.982.023,2.766,2.766,0,0,0,1.124-2.664,5.2,5.2,0,0,0-.932-2.485A10.7,10.7,0,0,0,804.518,38.512Zm-18.451,2.036c0.1,2.857,3.07,4.588,5.884,4.611,2.319,0.03,4.839-1.143,5.008-4.457,0.072-1.409-1.137-3.508-3.235-5.615a22.925,22.925,0,0,0-2.472-2.148,20.232,20.232,0,0,0-1.959,1.768C787.251,36.809,786.015,39.047,786.067,40.547Zm-8.576,57.386a1.461,1.461,0,0,0,.53-0.994,2.372,2.372,0,0,0-1.3-2.1,3.281,3.281,0,0,0-1.563-.4,2.709,2.709,0,0,0-1.419.377,2.764,2.764,0,0,0-1.124,2.664,5.2,5.2,0,0,0,.932,2.485A10.707,10.707,0,0,0,777.491,97.933Zm18.45-2.036c-0.1-2.857-3.069-4.588-5.883-4.611H790c-2.3,0-4.787,1.169-4.954,4.457-0.072,1.409,1.137,3.508,3.235,5.616a23.082,23.082,0,0,0,2.471,2.147,20.107,20.107,0,0,0,1.96-1.768C794.757,99.635,795.993,97.4,795.941,95.9ZM773.736,41.626a3.058,3.058,0,0,0,2.981-.023,2.37,2.37,0,0,0,1.3-2.1,1.46,1.46,0,0,0-.53-0.994,10.7,10.7,0,0,0-3.947-2.034,5.2,5.2,0,0,0-.932,2.485A2.764,2.764,0,0,0,773.736,41.626Zm-0.909-7.388c2.706-3.237,7.506-6.006,11.671-6.168,2-.079,4.479,1.007,6.737,2.508a13.1,13.1,0,0,1,6.274-2.487V28.07c0.052,0,.1.009,0.156,0.012,0.085,0,.171-0.015.255-0.015V28.1c4.067,0.319,8.643,3,11.261,6.137a58.881,58.881,0,0,1,13.555-1.9,40.5,40.5,0,0,1,5.766.454,10.824,10.824,0,0,0-7.529-4.59,10.759,10.759,0,0,0-11.592-6.5,10.861,10.861,0,0,0-12.634-3.344,10.862,10.862,0,0,0-13.5.015,10.833,10.833,0,0,0-13.284,3.3,10.955,10.955,0,0,0-1.385-.1,10.84,10.84,0,0,0-10.015,6.653,10.823,10.823,0,0,0-8.031,5.622,40.62,40.62,0,0,1,8.737-1.442A48.406,48.406,0,0,1,772.827,34.238Zm49.749,69.887a56.439,56.439,0,0,1-13.394-1.918c-2.706,3.237-7.507,6.005-11.672,6.167-0.068,0-.137,0-0.206,0-1.969,0-4.349-1.062-6.53-2.512a13.1,13.1,0,0,1-6.275,2.487v0.021c-0.05,0-.1-0.008-0.152-0.011-0.086,0-.173.015-0.258,0.015v-0.035c-4.067-.319-8.644-3-11.261-6.136a48.69,48.69,0,0,1-13.553,1.742,39.523,39.523,0,0,1-8.465-1.38,10.818,10.818,0,0,0,8.915,6.681,10.757,10.757,0,0,0,11.527,6.386,10.856,10.856,0,0,0,12.9,3.232,10.863,10.863,0,0,0,13.4-.344,10.856,10.856,0,0,0,12.758-3.507,10.759,10.759,0,0,0,11.51-6.887,10.837,10.837,0,0,0,7.312-4.539,39.764,39.764,0,0,1-6.556.545v-0.011Z" transform="translate(-735 -16)"/>
</svg>